<svg version="1" xmlns="http://www.w3.org/2000/svg" width="1333.333" height="1333.333" viewBox="0 0 1000.000000 1000.000000"><path d="M198.5 17.7c-23.7 2-42.9 6.4-58.9 13.6-35.9 15.9-62 42.4-76 76.9-7.8 19.4-10.7 35.2-10.7 58.6 0 40.1 14.1 68.6 45.1 90.8 21.9 15.8 43.9 25.4 87 38.4 7.4 2.2 17.8 5.4 23 6.9 52.2 15.7 62.3 19.2 76.2 26.2 5.8 2.9 15.3 8.6 18.1 10.9 17.9 14.3 26 23.8 34 39.7 15 29.6 8.7 80.4-13.6 110.3-16.8 22.6-44.6 38.6-73.8 42.5-16.5 2.2-38.8 2.6-60.9 1.1-39.1-2.7-72.3-19.1-94.9-47-21.3-26.2-35-57.7-44.7-102.4-.4-1.8-1.1-2.2-4.4-2.2h-4v152h5.3c4.8 0 5.5-.3 6.7-2.8 4.8-9.6 9.5-12.4 20.6-12.4 8.7 0 15.7 1.6 37.2 8.8 16 5.2 35.7 10.8 41.7 11.7 1.7.3 7.3 1.2 12.6 2.1 5.4.9 13.2 1.9 17.5 2.3 10.4 1 54.3.9 61.9 0 8.7-1.1 12.8-1.8 14.5-2.2.8-.2 3.1-.7 5-1 7.4-1.2 20-5 30.4-9.2 41.3-16.5 72.8-45.5 90.5-83.4 14-29.8 18.8-65.7 13-98.2-6.1-34.4-32.9-66.7-69.9-84.1-11.5-5.3-41-15.3-89-30.1-70.7-21.7-90.3-29.3-108.8-41.9-13.6-9.2-26.7-24.2-32-36.7-7.3-17-8-43.8-1.6-63.2 3.9-12.1 9.8-21.2 20.9-32.3 22.4-22.5 54.7-33.7 95-32.9 10.4.2 18.6.9 23.5 2 4.1.9 8.2 1.8 9 2 .8.2 4.4 1.4 8 2.8 34.7 13.1 61.4 41 77 80.2 3.5 8.7 9.2 28.1 11 37.3l1.3 6.3 4.1-.3 4.1-.3V30.6l-4.4-.2c-4.6-.1-4.4-.3-10.3 7.6-4.7 6.2-6.8 7.1-16.8 6.9-9.7-.2-12.8-1.1-32.2-9.7-7.5-3.4-17.9-7.5-23-9.2-8.8-2.8-25.5-6.8-28.8-6.8-.8 0-5-.3-9.3-.7-8.5-.8-21.4-1.2-26.2-.8zM461 439.3l-3.5 1.2-.3 43.2-.2 43.3-4.3.1c-19.2.4-43.6-.4-50.1-1.7-1.1-.2-7-.6-13-1l-11.1-.6-3.3 3.5c-2 2-3.7 5.2-4.3 7.7-1 4.2-.8 5.9 1.3 11.2l1 2.8H457v37.7c0 24.2.4 39.2 1.1 41.8 1.9 7.1 7.1 11 15.7 12.1 8.4 1 9.3-1.3 6-16.1-.8-3.2-1.2-17.7-1.2-40l-.1-35 40.5-.5c38.5-.5 40.7-.6 44-2.6 4.3-2.4 7.6-8.3 8.3-14.5.9-7.4-.4-8.4-8.9-7-12.1 2.2-14.5 2.3-49.2 2.4-29.6.2-34.1 0-34.5-1.3-.6-2.7-.1-37.3.7-42 .4-2.5 1.6-8.8 2.7-14 2.5-11.6 3.4-20.1 2.5-23.4-1.4-5.5-15.8-9.9-23.6-7.3zM758.8 464.5c-.2.1-3.8.5-8 .8-28.3 2.2-61.6 15.5-82.3 32.8-21.8 18.2-37.4 43.2-44.9 72.3-3.1 11.9-4 20-4.1 36.6 0 27.5 4.7 44.3 17.5 62.9 16.1 23.3 50.7 44.4 94.6 57.6 4.9 1.4 14.5 4.4 21.4 6.5 6.9 2.2 22.4 6.9 34.5 10.5 34.7 10.5 44.4 14.1 58.4 21.7 26.5 14.3 45.2 36.6 51.2 61.1 2.7 11 3.3 28.6 1.4 40.7-5.8 38.5-24.4 64.9-57 81.2-5.8 2.9-17.4 7.4-18.2 7-.2 0-1.7.4-3.5.9-18.8 5.6-65.1 5.9-90.8.6-40.3-8.4-68.8-31.1-90.4-72.2-8.6-16.3-16.9-38.8-21-57-.1-.6-.8-3.8-1.6-7.2l-1.4-6.3H607v146h5.4c4.8 0 5.5-.3 6.1-2.3 1-3.1 5.1-8.4 8.1-10.4 3-1.9 13.8-2.5 21.5-1.1 3 .5 14.4 3.9 25.4 7.5 18.7 6 35 10.6 42 11.6 1.7.3 7.4 1.2 12.8 2.1 13.2 2.2 22.8 2.8 44.7 2.8 16.7 0 30.4-.6 36.3-1.8 1.2-.2 3.9-.6 6.2-1 2.2-.3 6.7-1.2 10-2s6.9-1.7 8-1.9c9.2-2 28.7-10.5 41.7-18.2 49.5-29.3 77.9-79.8 77.2-137.3-.3-29.4-6.1-47.4-21.6-68.1-11.4-15.1-27.4-28-46.8-37.5-8.3-4.1-39.8-14.9-80-27.5-9.1-2.8-19.9-6.1-24-7.4-40.6-12.7-56.8-18.4-69.5-24.8-28.9-14.3-46.7-33.6-52.2-56.6-3.5-14.5-2-38.8 3.2-52.6 7.9-21 29.3-41.1 53.9-50.6 8-3.1 24.4-7.1 34.1-8.4 12.1-1.6 30.6-1.2 44 1 35 5.7 69.4 34.1 87 71.9 5.6 11.9 11.7 30.2 14.2 42.2l1.8 8.9 4.3.3 4.2.3V477.2l-3.4-.4c-5-.6-6.1.1-10.3 6.2-4.8 6.8-8.7 8.4-18.8 7.7-7.8-.6-13-2.1-23.7-7.1-16.7-7.8-31.9-13.3-41.3-15.1-2.2-.5-4.4-.9-5-1.1-6.6-1.6-17-2.5-31.4-2.8-6.6-.2-12.2-.2-12.3-.1z"/></svg>